<svg id="Layer_1" data-name="Layer 1" xmlns="http://www.w3.org/2000/svg" xmlns:xlink="http://www.w3.org/1999/xlink" viewBox="0 0 500 500"><defs><style>.cls-1{fill:#fff;}.cls-2{fill:#2fc5dd;}.cls-3{fill:url(#linear-gradient);}</style><linearGradient id="linear-gradient" x1="74.34" y1="245.03" x2="425.66" y2="245.03" gradientUnits="userSpaceOnUse"><stop offset="0" stop-color="#0063bc"/><stop offset="0.11" stop-color="#0b64bb" stop-opacity="0.96"/><stop offset="0.27" stop-color="#2867b9" stop-opacity="0.84"/><stop offset="0.47" stop-color="#596bb6" stop-opacity="0.65"/><stop offset="0.71" stop-color="#9c72b2" stop-opacity="0.39"/><stop offset="0.96" stop-color="#f27aad" stop-opacity="0.05"/><stop offset="1" stop-color="#ff7bac" stop-opacity="0"/></linearGradient></defs><title>Blue triangle Ind</title><path class="cls-1" d="M443.78,26.05a56.13,56.13,0,0,1,48.61,84.19L298.61,445.88a56.12,56.12,0,0,1-97.22,0L7.61,110.24A56.13,56.13,0,0,1,56.22,26.05Z"/><path class="cls-2" d="M272.41,423.06,457.3,102.82A25.88,25.88,0,0,0,434.89,64H65.11A25.88,25.88,0,0,0,42.7,102.82L227.59,423.06A25.88,25.88,0,0,0,272.41,423.06Z"/><path class="cls-3" d="M423.79,105.52,258,392.68c-4.4,7.61-11.59,7.61-16,0L76.21,105.52c-4.39-7.61-.79-13.84,8-13.84H415.8C424.58,91.68,428.18,97.91,423.79,105.52Z"/></svg>