<svg id="Layer_1" data-name="Layer 1" xmlns="http://www.w3.org/2000/svg" xmlns:xlink="http://www.w3.org/1999/xlink" viewBox="0 0 500 500"><defs><style>.cls-1{fill:#fff;}.cls-2{fill:#e02dcb;}.cls-3{fill:url(#linear-gradient);}</style><linearGradient id="linear-gradient" x1="76.54" y1="252.52" x2="423.46" y2="252.52" gradientUnits="userSpaceOnUse"><stop offset="0" stop-color="#7e00aa"/><stop offset="0.12" stop-color="#8204aa" stop-opacity="0.97"/><stop offset="0.28" stop-color="#8f10aa" stop-opacity="0.87"/><stop offset="0.47" stop-color="#a424ab" stop-opacity="0.7"/><stop offset="0.67" stop-color="#c240ab" stop-opacity="0.48"/><stop offset="0.88" stop-color="#e764ac" stop-opacity="0.19"/><stop offset="1" stop-color="#ff7bac" stop-opacity="0"/></linearGradient></defs><title>Pink Star Ind</title><path class="cls-1" d="M377.85,489.83c-8.91,0-18.14-2.48-27.43-7.36L250,429.68,149.58,482.47c-9.29,4.88-18.52,7.36-27.43,7.36-13,0-24.63-5.27-32.69-14.83-6.48-7.68-13.4-21.41-9.66-43.23L99,320,17.74,240.76C2.26,225.67-3.46,207.28,2.05,190.32s21-28.48,42.34-31.59l112.27-16.32L206.87,40.68c9.57-19.39,25.29-30.51,43.13-30.51s33.56,11.12,43.13,30.51l50.21,101.73,112.27,16.32c21.39,3.11,36.83,14.62,42.34,31.59s-.21,35.35-15.69,50.44L401,320,420.2,431.77c3.74,21.82-3.19,35.55-9.66,43.23C402.48,484.56,390.87,489.83,377.85,489.83Z"/><path class="cls-2" d="M267.25,53.45,319.7,159.72c2.46,5,9,9.72,14.48,10.52l117.28,17c21.22,3.09,26,17.85,10.66,32.82l-84.86,82.72c-4,3.88-6.47,11.54-5.53,17l20,116.81c3.62,21.13-8.94,30.25-27.91,20.28L259,401.78c-4.92-2.59-13-2.59-17.9,0l-104.9,55.15c-19,10-31.53.85-27.91-20.28l20-116.81c.94-5.48-1.55-13.14-5.53-17L37.88,220.1c-15.35-15-10.56-29.73,10.66-32.82l117.28-17c5.5-.8,12-5.53,14.48-10.52L232.75,53.45C242.24,34.22,257.76,34.22,267.25,53.45Z"/><path class="cls-3" d="M266.43,373.79a37.31,37.31,0,0,0-32.85,0l-80.13,42.13c-8.86,4.66-14.73.4-13-9.47l15.31-89.22c1.84-10.77-2.33-23.62-10.16-31.25L80.74,222.79c-7.17-7-4.93-13.88,5-15.32l89.58-13c10.82-1.57,21.75-9.51,26.58-19.31L241.94,94c4.43-9,11.69-9,16.12,0l40.06,81.17c4.83,9.8,15.76,17.74,26.57,19.31l89.59,13c9.91,1.44,12.15,8.34,5,15.32L354.44,286c-7.83,7.63-12,20.48-10.16,31.25l15.31,89.22c1.69,9.86-4.18,14.13-13,9.47Z"/></svg>