<svg id="Layer_1" data-name="Layer 1" xmlns="http://www.w3.org/2000/svg" viewBox="0 0 328.9 1157.7"><defs><style>.cls-1{fill:#fff;}</style></defs><title>Short straight Ind</title><path class="cls-1" d="M164.45,0h0A164.45,164.45,0,0,0,0,164.45V993.26A164.45,164.45,0,0,0,164.45,1157.7h0A164.45,164.45,0,0,0,328.9,993.26V164.45A164.45,164.45,0,0,0,164.45,0Zm127.4,993.26a127.4,127.4,0,1,1-254.8,0V164.45a127.4,127.4,0,0,1,254.8,0Z"/><path class="cls-1" d="M231,734.41a19.28,19.28,0,0,1,16.69,28.91L181.14,878.57a19.28,19.28,0,0,1-33.38,0L81.22,763.32a19.28,19.28,0,0,1,16.69-28.91Z"/><path class="cls-1" d="M231,269.5a19.28,19.28,0,0,1,16.69,28.91L181.14,413.66a19.28,19.28,0,0,1-33.38,0L81.22,298.41A19.28,19.28,0,0,1,97.91,269.5Z"/></svg>