<svg id="Layer_1" data-name="Layer 1" xmlns="http://www.w3.org/2000/svg" viewBox="0 0 530.73 1157.7"><defs><style>.cls-1{fill:#fff;}</style></defs><title>Short big curve Ind</title><path class="cls-1" d="M467.84,858.76c-84.33-67.07-132.69-169.09-132.69-279.91S383.51,366,467.84,299c58.05-46.18,78.69-126.48,50.19-195.29A167.84,167.84,0,0,0,258.82,36.2C94.34,166,0,363.82,0,578.85s94.34,412.83,258.82,542.66A167.86,167.86,0,0,0,518,1054C546.53,985.23,525.89,904.93,467.84,858.76Zm16,181.11a130.69,130.69,0,0,1-121.17,80.79h0a129.38,129.38,0,0,1-80.85-28.23C126.25,969.67,37.05,782.48,37.05,578.85S126.25,188,281.78,65.28a129.31,129.31,0,0,1,80.84-28.23A130.68,130.68,0,0,1,483.8,117.84C506,171.46,490,234,444.77,270c-93.21,74.14-146.66,186.73-146.66,308.9s53.45,234.76,146.66,308.9C490,923.69,506,986.24,483.8,1039.87Z"/><path class="cls-1" d="M242.73,733.41A19.27,19.27,0,0,1,275,742.05l34.44,128.54a19.27,19.27,0,0,1-23.6,23.6L157.27,859.75a19.28,19.28,0,0,1-8.64-32.24Z"/><path class="cls-1" d="M173.74,256.34a19.28,19.28,0,0,1,28.91-16.69l115.24,66.53a19.27,19.27,0,0,1,0,33.38L202.65,406.1a19.28,19.28,0,0,1-28.91-16.69Z"/></svg>