<svg id="Layer_1" data-name="Layer 1" xmlns="http://www.w3.org/2000/svg" viewBox="0 0 412.43 1157.7"><defs><style>.cls-1{fill:#fff;}</style></defs><title>Short small curve Ind</title><path class="cls-1" d="M399.83,226.92c31.05-73.84,3-159.31-65.33-201.17L331.69,24C246.51-28.17,135,8,96.34,100.14a1237.55,1237.55,0,0,0,0,957.42c38.68,92.12,150.17,128.31,235.35,76.11l2.8-1.72c68.31-41.85,96.39-127.33,65.34-201.17A908.48,908.48,0,0,1,399.83,226.92Zm-30.63,805a126.33,126.33,0,0,1-54.06,68.48l-2.79,1.72a125.28,125.28,0,0,1-65.41,18.58h0a126,126,0,0,1-116.43-77.44,1200.49,1200.49,0,0,1,0-928.74A125.71,125.71,0,0,1,312.33,55.62l2.8,1.71a126.36,126.36,0,0,1,54.07,68.49,124.37,124.37,0,0,1-3.52,86.74c-97.89,232.78-97.89,499.8,0,732.58A124.37,124.37,0,0,1,369.2,1031.88Z"/><path class="cls-1" d="M257.57,877.84a19.28,19.28,0,0,1-28.91,16.69L113.41,828a19.28,19.28,0,0,1,0-33.38l115.25-66.54a19.28,19.28,0,0,1,28.91,16.69Z"/><path class="cls-1" d="M188.57,424.29a19.27,19.27,0,0,1-32.24-8.63L121.89,287.12a19.28,19.28,0,0,1,23.6-23.61L274,298a19.28,19.28,0,0,1,8.64,32.25Z"/></svg>