<svg id="Layer_1" data-name="Layer 1" xmlns="http://www.w3.org/2000/svg" viewBox="0 0 659.55 1583.63"><defs><style>.cls-1{fill:#fff;}</style></defs><title>Tall big curve Ind</title><path class="cls-1" d="M587.42,1273.5c-330.47-230-330.47-733.33,0-963.36C651.79,265.33,677,182.25,647,109.79c-.86-2.1-1.74-4.21-2.61-6.32C603.82,5.63,483.38-30.81,396,29.07-132,391-132,1192.63,396,1554.56c87.35,59.88,207.79,23.45,248.32-74.4.87-2.11,1.75-4.22,2.61-6.32C677,1401.38,651.79,1318.31,587.42,1273.5ZM611.06,1459l-2.62,6.3a128.39,128.39,0,0,1-119,79.5h0A125.92,125.92,0,0,1,418,1522.51C295.58,1438.59,200,1329.08,133.75,1197,71.68,1073.13,38.87,933,38.87,791.82S71.68,510.5,133.75,386.64C200,254.56,295.58,145,418,61.13a125.87,125.87,0,0,1,71.45-22.26,128.39,128.39,0,0,1,119,79.48l2.61,6.3c23,55.62,4.19,118.77-45.83,153.59C399.58,393.53,300.7,585.52,300.7,791.82s98.88,398.28,264.52,513.58C615.24,1340.22,634.09,1403.37,611.06,1459Z"/><path class="cls-1" d="M324.27,1155.3a19.29,19.29,0,0,1,32.25,8.64L391,1292.48a19.28,19.28,0,0,1-23.6,23.61l-128.54-34.45a19.27,19.27,0,0,1-8.64-32.24Z"/><path class="cls-1" d="M238,714.92a19.28,19.28,0,0,1,16.68,28.91L188.18,859.08a19.28,19.28,0,0,1-33.38,0L88.26,743.83A19.28,19.28,0,0,1,105,714.92Z"/><path class="cls-1" d="M454.71,279.82a19.27,19.27,0,0,1-8.64,32.24L317.53,346.5a19.27,19.27,0,0,1-23.6-23.6l34.44-128.54a19.27,19.27,0,0,1,32.24-8.64Z"/></svg>