<svg id="Layer_1" data-name="Layer 1" xmlns="http://www.w3.org/2000/svg" viewBox="0 0 469.05 1583.63"><defs><style>.cls-1{fill:#fff;}</style></defs><title>Tall small curve Ind</title><path class="cls-1" d="M453.7,233.2C488.92,158.37,461.65,69,391.13,25.76L388.32,24C305.67-26.61,197.25,5.7,156,93.42a1641.56,1641.56,0,0,0,0,1396.8c41.27,87.71,149.69,120,232.34,69.37l2.81-1.72c70.52-43.21,97.79-132.6,62.57-207.44A1312.53,1312.53,0,0,1,453.7,233.2ZM371.77,1526.28,369,1528a125.4,125.4,0,0,1-65.53,18.57h0a126.33,126.33,0,0,1-113.92-72.13,1604.07,1604.07,0,0,1,0-1365.26A125.68,125.68,0,0,1,369,55.63l2.82,1.73c54.74,33.55,75.55,102.36,48.39,160.06-171.81,365-171.81,783.76,0,1148.79C447.34,1423.91,426.53,1492.73,371.77,1526.28Z"/><path class="cls-1" d="M231,714.92a19.28,19.28,0,0,1,16.69,28.91L181.18,859.08a19.28,19.28,0,0,1-33.38,0L81.26,743.83A19.28,19.28,0,0,1,98,714.92Z"/><path class="cls-1" d="M239.68,388.56a19.27,19.27,0,0,1-32.24-8.64L173,251.38a19.27,19.27,0,0,1,23.6-23.6l128.54,34.44a19.27,19.27,0,0,1,8.64,32.24Z"/><path class="cls-1" d="M147.37,1240.53a19.28,19.28,0,0,1,8.64-32.25l128.54-34.44a19.27,19.27,0,0,1,23.6,23.6L273.71,1326a19.28,19.28,0,0,1-32.25,8.64Z"/></svg>