<svg id="Layer_1" data-name="Layer 1" xmlns="http://www.w3.org/2000/svg" viewBox="0 0 328.9 1583.63"><defs><style>.cls-1{fill:#fff;}</style></defs><title>Tall straight Ind</title><path class="cls-1" d="M164.45,0h0A164.45,164.45,0,0,0,0,164.45V1419.19a164.45,164.45,0,0,0,164.45,164.44h0A164.45,164.45,0,0,0,328.9,1419.19V164.45A164.45,164.45,0,0,0,164.45,0Zm127.4,1419.19a127.4,127.4,0,0,1-254.8,0V164.45a127.4,127.4,0,0,1,254.8,0Z"/><path class="cls-1" d="M235.94,1179.83a19.28,19.28,0,0,1,16.69,28.91L186.09,1324a19.27,19.27,0,0,1-33.38,0L86.17,1208.74a19.28,19.28,0,0,1,16.69-28.91Z"/><path class="cls-1" d="M235.94,714.92a19.28,19.28,0,0,1,16.69,28.91L186.09,859.08a19.28,19.28,0,0,1-33.38,0L86.17,743.83a19.28,19.28,0,0,1,16.69-28.91Z"/><path class="cls-1" d="M235.94,233.77a19.28,19.28,0,0,1,16.69,28.91L186.09,377.92a19.27,19.27,0,0,1-33.38,0L86.17,262.68a19.27,19.27,0,0,1,16.69-28.91Z"/></svg>